<svg height="55" viewBox="0 0 47 55" width="47" xmlns="http://www.w3.org/2000/svg"><g fill="none" fill-rule="evenodd" stroke="#2b2b2b"><path d="m.5.50684756v53.99315244h45.9701745l.0296853-43.8499513-10.151579-10.15000937z" fill="#979797"/><path d="m.5.5v54h5v-54z" fill="#2b2b2b"/><path d="m1.5 2.5v2h2v-2zm0 5v2h2v-2zm0 5v2h2v-2zm0 5v2h2v-2zm0 4v2h2v-2zm0 5v2h2v-2zm0 5v2h2v-2zm0 4v2h2v-2zm0 5v2h2v-2zm0 5v2h2v-2zm0 5v2h2v-2z" fill="#979797"/><path d="m46.497302 10.6498516-4.997302-5.37734082v49.22748922h4.9999696z" fill="#2b2b2b"/><path d="m42.5 7.5v2h2v-.14431779l-1.419531-1.85568221zm0 5v2h2v-2zm0 5v2h2v-2zm0 4v2h2v-2zm0 5v2h2v-2zm0 5v2h2v-2zm0 4v2h2v-2zm0 5v2h2v-2zm0 5v2h2v-2zm0 5v2h2v-2z" fill="#979797"/><path d="m3.21428571 14h38.57142859m-38.57142859 15h38.57142859m-38.57142859 15h38.57142859" stroke-linecap="square"/><path d="m37.5 1.29330344v9.20669656h8.3697241z" fill="#d8d8d8"/></g></svg>