<svg height="128" viewBox="0 0 109 128" width="109" xmlns="http://www.w3.org/2000/svg"><g fill="none" fill-rule="evenodd" stroke="#2b2b2b"><path d="m.5 1.49990464v126.00009536h107.000337l.068881-102.1926626-23.723485-23.82333068z" fill="#979797"/><path d="m.5 1.5h14v126h-14z" fill="#2b2b2b"/><g fill="#979797"><path d="m3.5 6.5h8v6h-8z"/><path d="m3.5 17.5h8v6h-8z"/><path d="m3.5 28.5h8v6h-8z"/><path d="m3.5 39.5h8v6h-8z"/><path d="m3.5 50.5h8v6h-8z"/><path d="m3.5 61.5h8v6h-8z"/><path d="m3.5 72.5h8v6h-8z"/><path d="m3.5 83.5h8v6h-8z"/><path d="m3.5 94.5h8v6h-8z"/><path d="m3.5 105.5h8v6h-8z"/><path d="m3.5 116.5h8v6h-8z"/></g><path d="m107.493239 25.2063159-13.993239-13.9264039v116.220088h13.999967z" fill="#2b2b2b"/><g fill="#979797"><path d="m96.5 17.5v6h8v-1.1937916l-4.7270299-4.8062084z"/><path d="m96.5 28.5h8v6h-8z"/><path d="m96.5 39.5h8v6h-8z"/><path d="m96.5 50.5h8v6h-8z"/><path d="m96.5 61.5h8v6h-8z"/><path d="m96.5 72.5h8v6h-8z"/><path d="m96.5 83.5h8v6h-8z"/><path d="m96.5 94.5h8v6h-8z"/><path d="m96.5 105.5h8v6h-8z"/><path d="m96.5 116.5h8v6h-8z"/></g><path d="m9.5 34.5h90m-90 33h90m-90 33h90" stroke-linecap="square"/><path d="m84.5 2.20710678v22.29289322h22.292893z" fill="#d8d8d8"/></g></svg>