<svg height="26" viewBox="0 0 36 26" width="36" xmlns="http://www.w3.org/2000/svg"><g fill="none" fill-rule="evenodd" stroke="#040404"><path d="m.5.5v25h35v-25z" fill="#d8d8d8"/><path d="m23.2622311 19 1.8132075 1.3441071c.4436764.3288915 1.0699665.23584 1.3988581-.2078364.019145-.0258268.0370335-.0525618.053603-.0801118l.310398-.5160965c.1703349-.2832145.5380093-.3747216.8212238-.2043867.1391463.0836873.2383108.2203269.2747368.3785622.1972613.8571793.5012686 1.2857621.9119625 1.2857621.3281949 0 .5681615-.2812023.7198998-.8436069l.0000263.0000071c.2549497-.9449489 1.2276598-1.5043037 2.1726087-1.2493539.0893756.0241137.1767244.0551934.2612444.0929537m-14-13h14m-29 15h17m-2-12h14m-14 3h14m-14 3h14" stroke-linecap="square"/><path d="m3.5 3.5v14h11v-14z" fill="#fff"/><path d="m5.5 15.5h7v-6.5c0-1.93299662-1.5670034-3.5-3.5-3.5-1.93299662 0-3.5 1.56700338-3.5 3.5z" fill="#fff"/><path d="m5.5 10.2784998 6.9773446-2.61650426c-.1650048-1.22085015-1.2112666-2.16199554-2.4773446-2.16199554h-1c-1.93299662 0-3.5 1.56700338-3.5 3.5zm-2 7.2215002h11v-5h-1.5815489l-3.91789283 2.369963-3.93485983-2.369963h-1.56569844z" fill="#979797"/></g></svg>