<svg height="36" viewBox="0 0 23 36" width="23" xmlns="http://www.w3.org/2000/svg"><g fill="none" fill-rule="evenodd" stroke="#040404" transform="translate(-.642 -.316)"><path d="m3.5 18.0507004v13h16.848537v-13z" fill="#979797" transform="matrix(.7193398 .69465837 -.69465837 .7193398 20.400455 -1.392899)"/><path d="m3.5 14.0507004v13h16.848537v-13z" fill="#e2e2e2" transform="matrix(.7193398 .69465837 -.69465837 .7193398 17.621822 -2.515539)"/><path d="m3.5 10.0507004v13h16.848537v-13z" fill="#e2e2e2" transform="matrix(.7193398 .69465837 -.69465837 .7193398 14.843188 -3.63818)"/><g transform="matrix(.7193398 -.69465837 .69465837 .7193398 .642271 10.735676)"><path d="m-1.2804094 2.5v13h16.848537v-13z" fill="#fff" transform="matrix(0 1 -1 0 16.144 1.856)"/><path d="m3 4h8.28m-8.28 2h8.28m-8.28 2h8.28m-8.28 2h8.28m-8.28 2h8.28m-8.28 2h8.28" stroke-dasharray="2.1 1 2 1"/></g></g></svg>