<svg height="32" viewBox="0 0 29 32" width="29" xmlns="http://www.w3.org/2000/svg"><g fill="none" fill-rule="evenodd"><g stroke="#040404" transform="translate(0 1)"><path d="m3.5 2.5v5h25v-3.5c0-.82842712-.6715729-1.5-1.5-1.5z" fill="#979797"/><path d="m.5 8.5h24v-4.5c0-.82842712-.6715729-1.5-1.5-1.5h-21c-.82842712 0-1.5.67157288-1.5 1.5z" fill="#e2e2e2"/><path d="m4.5 7.5h24v23h-24z" fill="#979797"/><path d="m2.5 7.5h24v21h-24z" fill="#e2e2e2"/><path d="m.5 7.5v19h17.3066146l6.6933854-6.6640668v-12.3359332z" fill="#fff"/><path d="m3 4v-2.32135406c0-.92709055.75155539-1.67864594 1.67864594-1.67864594s1.67864594.75155539 1.67864594 1.67864594v.32135406m15.64270812 2v-2.32135406c0-.92709055.7515554-1.67864594 1.6786459-1.67864594.9270906 0 1.678646.75155539 1.678646 1.67864594v.32135406" stroke-linecap="square"/></g><g transform="translate(3 11)"><path d="m1.35 1.5h17m.15 10v-10m-17.5 12v-12m3.5 12v-12m3.5 12v-12m3.5 12v-12m3.5 12v-12m-13.65 3h16.2999992m-16.2999992 3h16.2999992m-16.30789394 3h16.30000004m-16.6421053 3h16.3000031" stroke="#979797" stroke-linecap="square"/><path d="m15.5 10.5v5.2977782l5.3282611-5.2977782z" fill="#979797" stroke="#040404"/></g></g></svg>