<svg height="31" viewBox="0 0 22 31" width="22" xmlns="http://www.w3.org/2000/svg"><g fill="none" fill-rule="evenodd" stroke="#040404" transform="translate(0 1.266)"><path d="m4.3323936 26.6769328-.00000011 2.5470228h-2.33239349l.00000013-3.6741109c.00000002-.6652609.5221241-1.2045615 1.16619678-1.2045615h1.16619674l.00000044-19.46624283h-1.16619674c-.64407268 0-1.16619673-.53930055-1.16619671-1.20456149l-.00000064-3.67447888h2.33239426l-.00000011 2.54960442h3.49859023l.00000011-2.54960442h2.33239351l-.0000002 3.67447888c0 .66526094-.52212406 1.20456149-1.16619673 1.20456149h-1.16619675l-.00000044 19.46624283h1.16619674c.64407268 0 1.16619678.5393006 1.16619668 1.2045615l.0000007 3.6741109h-2.33239428l.00000011-2.5470228z" fill="#fff" stroke-linecap="square"/><path d="m.70482699 15.5898161 6.27253012 5.4554428h10.08103059v-7.6254724l-3.8789831-3.1861319h-7.83033666z" fill="#d8d8d8"/><path d="m6.127 14.048 1.03 3.353-2.017.313z" fill="#979797" transform="matrix(.1391731 -.99026807 .99026807 .1391731 -10.434083 19.75896)"/><path d="m4.32998657 9.2336546v6.4139084l1.51769665.6487704c.58951456.2733689 1.20332648.3014012 1.63891801-.1306111.19754373-.1959206.30715418-.4522098.30715418-.7181825l.02940364-6.2138852" fill="#fff"/><path d="m17 11.734h4.5v11h-4.5z" fill="#979797" stroke-linecap="square"/></g></svg>