<svg height="37" viewBox="0 0 36 37" width="36" xmlns="http://www.w3.org/2000/svg"><g fill="none" fill-rule="evenodd" stroke="#040404" transform="translate(-1)"><g transform="matrix(.96592583 -.25881905 .25881905 .96592583 .414372 6.763466)"><path d="m.90814118 1.07318185v29.42681815h23.38840672v-29.42681815z" fill="#fff"/><path d="m4.5 6.5h2m4 9h1m0-5h3m-10 5h4m-4-5h5m1-2h2m2 0h3m-13 0h4m9-2h3m-6 0h1m-7 0h4" stroke-linecap="square"/></g><path d="m13.5 26.5h5" stroke-linecap="square"/><path d="m16.1464393 26.0445572 6.2725301 5.4554428h10.0810306v-7.6254724l-3.8789831-3.1861319h-7.8303367z" fill="#d8d8d8"/><path d="m21.4815161 25.3284581.273083 1.3866728c.1067139.5418769-.2460553 1.0676637-.7879322 1.1743777-.0179299.003531-.0359532.0065698-.0540496.0091131l-1.3274391.1865594z" fill="#979797" transform="matrix(.1391731 -.99026807 .99026807 .1391731 -8.565993 43.559952)"/><g stroke-linecap="square"><path d="m20.5 26.5h8"/><path d="m32 22h4.5v11h-4.5z" fill="#979797"/></g></g></svg>