<svg height="36" viewBox="0 0 36 36" width="36" xmlns="http://www.w3.org/2000/svg"><g fill="none" fill-rule="evenodd" stroke="#040404" transform="translate(-.414 -.793)"><g transform="matrix(.96592583 -.25881905 .25881905 .96592583 .414372 6.763466)"><path d="m.90814118 1.07318185v29.42681815h23.38840672v-29.42681815z" fill="#fff"/><g stroke-linecap="square"><path d="m13.5 6.5h7m-7 3h7m-7 3h7m-7 3h7"/><path d="m4 22 1.752 2 1.419-1.444"/></g></g><path d="m12.914232 26.2929116h5" stroke-linecap="square"/><path d="m16.119059 25.6490731 6.2725301 5.4554428h10.0810306v-7.6254724l-3.8789831-3.1861319h-7.8303367z" fill="#d8d8d8"/><path d="m21.6539148 25.2816.273083 1.3866729c.106714.5418768-.2460552 1.0676636-.7879321 1.1743776-.0179299.003531-.0359532.0065699-.0540497.0091132l-1.327439.1865594z" fill="#979797" transform="matrix(.1391731 -.99026807 .99026807 .1391731 -8.371388 43.68982)"/><g stroke-linecap="square"><path d="m19.914232 26.2929116h8"/><path d="m31.414 21.793h4.5v11h-4.5z" fill="#979797"/></g></g></svg>