<svg height="36" viewBox="0 0 36 36" width="36" xmlns="http://www.w3.org/2000/svg"><g fill="none" fill-rule="evenodd" stroke="#040404"><path d="m35.5 35.5v-28.08578644c0-.13260824-.0526784-.2597852-.1464466-.35355339l-6.4142136-6.41421356c-.0937682-.09376819-.2209451-.14644661-.3535534-.14644661h-27.5857864c-.27614237 0-.5.22385763-.5.5v34c0 .2761424.22385763.5.5.5z" fill="#979797"/><path d="m10.5.5v8.5c0 1.3807119 1.1192881 2.5 2.5 2.5h11c1.3807119 0 2.5-1.1192881 2.5-2.5v-8.5zm-5 35h25v-16.5c0-1.3807119-1.1192881-2.5-2.5-2.5h-20c-1.38071187 0-2.5 1.1192881-2.5 2.5z" fill="#d8d8d8"/><rect fill="#fff" height="5" rx="1.5" width="3" x="20.5" y="4.5"/></g></svg>