<svg height="36" viewBox="0 0 25 36" width="25" xmlns="http://www.w3.org/2000/svg"><g fill="none" fill-rule="evenodd" stroke="#040404"><path d="m4.5 32.5h16v-25.5c0-3.03756612-2.4624339-5.5-5.5-5.5h-5c-3.03756612 0-5.5 2.46243388-5.5 5.5z" fill="#fff"/><path d="m12.1302759 1.5 8.3697241 9.2066966v-3.59558549c0-3.11857937-2.0393442-5.61111111-4.5-5.61111111z" fill="#979797"/><path d="m4.5 10.6931085 8.3697241-9.20669654h-3.8697241c-2.48528137 0-4.5 2.01471862-4.5 4.5z" fill="#979797"/><path d="m.5 18.5v16.5h3.91034232l8.09035498-6.8219404 8.0554695 6.8219404h3.9438332v-16.5z" fill="#d8d8d8" transform="matrix(1 0 0 -1 0 53.5)"/><g stroke-linecap="square"><path d="m8.5 9.5h3"/><path d="m12.55 14.011h1.95v-4.511h3"/><path d="m10 16c1 .7365642 2 1.1048463 3 1.1048463s2-.3682821 3-1.1048463"/></g></g></svg>