<svg height="28" viewBox="0 0 37 28" width="37" xmlns="http://www.w3.org/2000/svg"><g fill="none" fill-rule="evenodd" stroke="#040404" transform="translate(-3 -4)"><g transform="matrix(.69465837 -.7193398 .7193398 .69465837 .317421 13.901796)"><circle cx="9" cy="9" fill="#d8d8d8" r="9"/><circle cx="9" cy="9" fill="#fff" r="7"/><path d="m8.1519476 17.9367925h2l.2430249 10.063499c.0130152.5389514-.41334032.9864088-.95229175.999424-.00785395.0001897-.0157099.0002845-.02356614.0002845-.5561475 0-1.01071553-.4437231-1.0241421-.9997085z" fill="#979797" stroke-linecap="square"/></g><g transform="translate(17.318 17.953)"><path d="m1.69950749 5.90414978 6.2765153 5.40745452h10.08236491v-7.62547238l-3.8789831-3.18613192h-7.82921002z" fill="#d8d8d8"/><g fill="#979797"><path d="m5.26391921 5.47255538 1.41118361-.07743784c.55145511-.03026076 1.02302899.39225074 1.05328975.94370584.00100129.01824683.00150221.03651767.00150221.05479195v1.34048453z"/><g stroke-linecap="square"><path d="m17 2h4.5v11h-4.5z"/><path d="m5.91356868 6.07064625.67553235-.66057396 1.41089897-.08242411 2.5367342 2.28912468c.3851289.34753668.4156035.94147953.0680668 1.32660847-.0111645.01237214-.0226563.02444496-.0344631.03620565-.3929414.39140498-1.02400048.40524882-1.43372842.03145238z"/></g></g></g></g></svg>