<svg height="36" viewBox="0 0 36 36" width="36" xmlns="http://www.w3.org/2000/svg"><g fill="none" fill-rule="evenodd" stroke="#040404"><path d="m.5.5v35.0001147h35.0001232v-35.0001147z" fill="#d8d8d8"/><path d="m24.5 27.5v2h2.0001232v-2z" fill="#979797"/><path d="m.5.5v35h11.6315789v-4.2634972c0-.5683281-.3211937-1.0878477-.8296017-1.3418518l-1.7907103-.894651 1.7907103-.894651c.508408-.2540041.8296017-.7735237.8296017-1.3418518v-4.8479188h3.2876715l-3.2181496-21.4155784z" fill="#fff"/><path d="m20 11.5h2v-1.5c0-.82842712.6715729-1.5 1.5000001-1.5l4.4999999.00000082c.8284266 0 1.4999993.67157213 1.5 1.49999867l.0000082 8.00000131c0 .8284271-.6715729 1.5-1.5000004 1.5l-1.0000078-.0000008h-2.5v5h2v-3h1.5001232c1.9329966 0 3.5-1.5670034 3.5-3.5v-8c0-1.93299662-1.5670034-3.5-3.5-3.5h-4.5001232c-1.9329966 0-3.5 1.56700338-3.5 3.5z" fill="#979797"/></g></svg>