<svg height="34" viewBox="0 0 27 34" width="27" xmlns="http://www.w3.org/2000/svg"><g fill="none" fill-rule="evenodd" stroke="#040404"><path d="m2 .5c-.82842712 0-1.5.67157288-1.5 1.5v30c0 .8284271.67157288 1.5 1.5 1.5h23c.8284271 0 1.5-.6715729 1.5-1.5v-30c0-.82842712-.6715729-1.5-1.5-1.5z" fill="#979797"/><path d="m3.5 3.5h20v7h-20z" fill="#fff"/><g fill="#d8d8d8"><path d="m3.5 16.5h4v2h-4z"/><path d="m11.5 16.5h4v2h-4z"/><path d="m19.5 16.5h4v2h-4z"/><path d="m3.5 21.5h4v2h-4z"/><path d="m11.5 21.5h4v2h-4z"/><path d="m19.5 21.5h4v2h-4z"/><path d="m3.5 26.5h4v2h-4z"/><path d="m11.5 26.5h4v2h-4z"/><path d="m19.5 26.5h4v2h-4z"/></g></g></svg>