<svg height="36" viewBox="0 0 36 36" width="36" xmlns="http://www.w3.org/2000/svg"><g fill="none" fill-rule="evenodd" stroke="#040404"><path d="m.5.5v35.0001147h35.0001232v-35.0001147z" fill="#979797"/><path d="m19.0718265 29.5c1.7849779 1.9028795 4.2886727 3 6.9283569 3h.9999398c2.4852813 0 4.5-2.0147186 4.5-4.5v-20c0-2.48528137-2.0147187-4.5-4.5-4.5h-.9999624c-2.4852814 0-4.5 2.01471863-4.5 4.5v21.5z" fill="#d8d8d8"/><path d="m23.5001232 8.5h3m-3 12h2m1-2h2m-5 0h1m-1-4h3m-3 2h4m0-4h2" stroke-linecap="square"/><path d="m.50012317.5v35h11.63157893v-4.2634972c0-.5683281-.3211937-1.0878477-.8296017-1.3418518l-1.79071033-.894651 1.79071033-.894651c.508408-.2540041.8296017-.7735237.8296017-1.3418518v-4.8479188h3.2876715l-3.2181496-21.4155784z" fill="#fff"/><path d="m23.5001232 12.5h2m-2-2h5m0-2h1" stroke-linecap="square"/></g></svg>