<svg height="21" viewBox="0 0 16 21" width="16" xmlns="http://www.w3.org/2000/svg"><g fill="none" fill-rule="evenodd" stroke="#2b2b2b" transform="translate(0 .5)"><path d="m14.9997132 15.7499385v-.0002253c0-.6901975-.5595157-1.2497132-1.2497132-1.2497132h-9c-.69035594 0-1.25.5596441-1.25 1.25s.55964406 1.25 1.25 1.25h8.9994263c.6904344 0 1.2501737-.5596476 1.2502869-1.250082zm-1 2.5v-.0002253c0-.6901975-.5595157-1.2497132-1.2497132-1.2497132h-9c-.69035594 0-1.25.5596441-1.25 1.25s.55964406 1.25 1.25 1.25h8.9994263c.6904344 0 1.2501737-.5596476 1.2502869-1.250082z" fill="#e2e2e2"/><path d="m11.9997132 13.2499385v-.0002253c0-.6901975-.5595157-1.2497132-1.2497132-1.2497132h-9c-.69035594 0-1.25.5596441-1.25 1.25s.55964406 1.25 1.25 1.25h8.9994263c.6904344 0 1.2501737-.5596476 1.2502869-1.250082z" fill="#979797"/><path d="m14.9997132 10.7499385v-.0002253c0-.6901975-.5595157-1.2497132-1.2497132-1.2497132h-9c-.69035594 0-1.25.5596441-1.25 1.25s.55964406 1.25 1.25 1.25h8.9994263c.6904344 0 1.2501737-.5596476 1.2502869-1.250082z" fill="#e2e2e2"/><path d="m14.5 4.99998346v-.00020399c0-2.48515958-2.0146199-4.49977947-4.4997795-4.49977947h-2.0002205c-2.48528137 0-4.5 2.01471863-4.5 4.5s2.01471863 4.5 4.5 4.5h1.99977945c2.48532565 0 4.50011095-2.01469639 4.50022055-4.50002205z" fill="#979797"/><path d="m12.4997705 4.99998278v-.00021224c0-2.48515465-2.0146159-4.49977054-4.4997705-4.49977054-2.48528137 0-4.5 2.01471863-4.5 4.5v.00022947c0 2.48515464 2.01461589 4.49977053 4.49977053 4.49977053 2.48520067 0 4.49988597-2.01459275 4.49999997-4.49979347zm0 0v.00000574z" fill="#e2e2e2"/><path d="m6 3v4-2.17247888c0-.55228475.44771525-1 1-1 .55228475 0 1 .44771525 1 1v2.17247888-2.17247888c0-.55228475.44771525-1 1-1 .55228475 0 1 .44771525 1 1v2.17247888"/></g></svg>