<svg height="37" viewBox="0 0 31 37" width="31" xmlns="http://www.w3.org/2000/svg"><g fill="none" fill-rule="evenodd" stroke="#040404" transform="translate(.5 .5)"><path d="m6.5 5.5h23v30h-23z" fill="#979797"/><path d="m3.5 3h23v30h-23z" fill="#e2e2e2"/><path d="m.5.5v30h23v-24.31474676l-5.6472934-5.68525324z" fill="#fff"/><path d="m3.5 19.5h2m4 7h1m2-5h3m-12-11h4m6 9h7m-13 0h4m-2 2h1m-7 0h4m3-9h8m-15-4h7m7 0h3m-17 4h5m1-2h7m-4-2h3" stroke-linecap="square"/><path d="m18.5 1.20710678v4.29289322h4.2928932z" fill="#979797"/><path d="m3.5 14.5h3m6 12h6" stroke-linecap="square"/></g></svg>